<?xml version="1.0" encoding="UTF-8"?>
<svg version="1.1" xmlns="http://www.w3.org/2000/svg" width="1080" height="1080">
<path d="M0 0 C356.4 0 712.8 0 1080 0 C1080 356.4 1080 712.8 1080 1080 C723.6 1080 367.2 1080 0 1080 C0 723.6 0 367.2 0 0 Z " fill="#FEFEFE" transform="translate(0,0)"/>
<path d="M0 0 C0 184.47 0 368.94 0 559 C-16.83 560.32 -33.66 561.64 -51 563 C-65.0603181 564.43472634 -79.05056071 566.03558705 -93.03051758 568.08618164 C-94.65272613 568.31985636 -96.27752661 568.53650055 -97.90478516 568.73193359 C-99.67096058 568.95790197 -101.42314215 569.28954187 -103.16796875 569.64453125 C-106.62421001 568.85793841 -106.83505696 568.15669451 -108.81787109 565.33325195 C-114.1355809 558.27621394 -120.49294955 552.23959002 -126.74609375 546.0234375 C-128.08492503 544.68580111 -129.42338379 543.34779177 -130.76148987 542.00942993 C-133.5547849 539.21769119 -136.3513812 536.42931859 -139.15063477 533.64355469 C-142.72072015 530.09046583 -146.28418025 526.53082268 -149.845397 522.96884727 C-152.60505417 520.2094633 -155.36731969 517.45270287 -158.1304493 514.69679642 C-159.444618 513.38578699 -160.75820207 512.07419124 -162.07116508 510.76197433 C-170.88187438 501.95257619 -170.88187438 501.95257619 -180.14122009 493.62203979 C-186.68087027 487.91530023 -192.73095948 481.61751952 -198.89379883 475.51123047 C-200.68288933 473.74390824 -202.47822645 471.98288874 -204.27954102 470.22802734 C-206.88963052 467.68447464 -209.47982125 465.12211167 -212.06640625 462.5546875 C-212.87767471 461.77124969 -213.68894318 460.98781189 -214.52479553 460.18063354 C-215.2598381 459.44281647 -215.99488068 458.70499939 -216.75219727 457.94482422 C-217.40535416 457.30197479 -218.05851105 456.65912537 -218.73146057 455.99679565 C-220 454 -220 454 -219.76901245 451.38461304 C-218.97322876 448.91698567 -218.00121377 446.99358638 -216.62890625 444.796875 C-216.14188232 443.99467529 -215.6548584 443.19247559 -215.15307617 442.3659668 C-214.36574097 441.07106323 -214.36574097 441.07106323 -213.5625 439.75 C-202.49577085 420.90691891 -195.13665287 400.19877356 -190 379 C-189.66331299 377.61216309 -189.66331299 377.61216309 -189.31982422 376.19628906 C-186.02090929 361.7701822 -185.61683138 347.35480395 -185.5625 332.625 C-185.55614532 331.74370422 -185.54979065 330.86240845 -185.54324341 329.95440674 C-185.46761973 313.09130905 -187.33200025 296.91238903 -192.3125 280.75 C-192.61808838 279.73550781 -192.92367676 278.72101563 -193.23852539 277.67578125 C-208.94970538 226.48708588 -243.65937998 184.10773575 -291 159 C-303.5118181 152.65126496 -316.64418633 148.20857176 -330 144 C-330.52407128 139.74957201 -330.98867653 135.73874819 -328.81274414 131.91201782 C-327.06744302 129.89749961 -325.23486705 128.08281917 -323.28125 126.26953125 C-322.58994995 125.590009 -321.8986499 124.91048676 -321.18640137 124.21037292 C-318.98005452 122.05311149 -316.74128761 119.9333739 -314.5 117.8125 C-313.02380931 116.37794462 -311.54982645 114.94111362 -310.078125 113.50195312 C-304.10629551 107.69285256 -298.07268221 101.99624915 -291.77131653 96.54432678 C-289.1897562 94.2935869 -286.69368084 91.95942859 -284.1875 89.625 C-279.53748869 85.32928228 -274.75242192 81.26003682 -269.81640625 77.29296875 C-267.3610068 75.29391261 -264.96063858 73.24436897 -262.57006836 71.16870117 C-217.00078967 31.80665124 -170.53273276 14.74816823 -111.125 8.375 C-108.13130978 8.05120154 -105.13782887 7.72574961 -102.14474487 7.39639282 C-100.30098138 7.19373044 -98.45685425 6.99434193 -96.61233521 6.79867554 C-95.3736116 6.66315781 -95.3736116 6.66315781 -94.10986328 6.52490234 C-93.02428635 6.40856949 -93.02428635 6.40856949 -91.91677856 6.28988647 C-89.78539534 6.02335959 -89.78539534 6.02335959 -87 5 C-84.72689777 4.73312346 -82.44824147 4.51280673 -80.16796875 4.31640625 C-79.13003677 4.2266452 -79.13003677 4.2266452 -78.07113647 4.1350708 C-75.77698588 3.93914243 -73.48234434 3.75011949 -71.1875 3.5625 C-70.39955048 3.49719086 -69.61160095 3.43188171 -68.79977417 3.36459351 C-56.06447856 2.31616995 -43.32279957 1.487367 -30.5625 0.8125 C-29.37773575 0.74858566 -29.37773575 0.74858566 -28.16903687 0.68338013 C-25.88503259 0.56172595 -23.60082066 0.44570068 -21.31640625 0.33203125 C-20.02162354 0.26733643 -18.72684082 0.2026416 -17.39282227 0.13598633 C-11.59781367 -0.04340676 -5.79778462 0 0 0 Z " fill="#A6A6A6" transform="translate(894,166)"/>
<path d="M0 0 C1.21945312 0.17144531 2.43890625 0.34289062 3.6953125 0.51953125 C40.14061562 6.22561406 72.67212235 25.90851439 99 51 C99.83015625 51.76570313 100.6603125 52.53140625 101.515625 53.3203125 C125.01320511 75.68091293 141.23821223 106.73017468 149 138 C149.29390625 139.17433594 149.5878125 140.34867188 149.890625 141.55859375 C153.85991924 158.70049683 154.38321158 175.47618918 154 193 C153.98195313 194.24265625 153.96390625 195.4853125 153.9453125 196.765625 C152.53530805 230.43984881 138.97493015 264.12551668 119 291 C123.99103839 297.03468674 129.41637108 302.52579341 134.98095703 308.03100586 C135.98051466 309.02372054 136.97981582 310.01669352 137.97888184 311.00990295 C140.11866536 313.13643052 142.25986911 315.26151385 144.40210342 317.38557243 C147.7934641 320.7489278 151.17926704 324.11784083 154.56393433 327.4879303 C155.72624474 328.64509795 156.88856207 329.80225866 158.05088615 330.95941257 C158.63262399 331.53856485 159.21436183 332.11771713 159.81372809 332.71441948 C167.68548299 340.55021634 175.56198961 348.38119011 183.44873047 356.2019043 C188.78205605 361.49066913 194.10817559 366.78657817 199.42630661 372.09062296 C202.23566793 374.89193339 205.04859417 377.68944142 207.87048721 380.47813225 C210.5237727 383.10024807 213.16750614 385.73163125 215.80438232 388.37024498 C217.22815864 389.79006427 218.66187136 391.19989791 220.09591675 392.60934448 C227.14655917 399.69341074 231.56319618 405.47135696 231.625 415.875 C231.54231101 424.1487063 229.12807437 429.6390599 223.4765625 435.609375 C218.02352529 440.51422328 212.49412382 442.54152281 205.25 442.5625 C203.93515625 442.60503906 202.6203125 442.64757812 201.265625 442.69140625 C190.92228971 441.76431215 183.07265208 432.63348544 176.22607422 425.68017578 C175.19099015 424.64396084 174.15501938 423.608631 173.11824036 422.57411194 C170.33097166 419.78798193 167.55613324 416.98977222 164.78350592 414.18908167 C161.87463641 411.25505638 158.95428964 408.33249862 156.03518677 405.40866089 C150.52025968 399.88134545 145.01560105 394.34392165 139.51463711 388.80271327 C133.2468006 382.49002962 126.96748155 376.18882051 120.68721366 369.88850808 C107.77873668 356.93832069 94.88461424 343.97392736 82 331 C78.45049348 332.34283436 75.58544514 333.89610633 72.50048828 336.12158203 C33.86154317 363.78857564 -16.99800022 372.99405405 -63.50439453 365.50854492 C-74.97293076 363.35289872 -86.17242788 360.36227379 -97 356 C-98.19133545 355.52071045 -98.19133545 355.52071045 -99.40673828 355.03173828 C-120.53518771 346.35699944 -139.07682975 334.43637642 -155.859375 318.953125 C-157.59341258 317.37097392 -159.34699382 315.89053119 -161.1875 314.4375 C-164.86620262 311.24929106 -167.9065265 307.75128109 -171 304 C-172.25683594 302.48212891 -172.25683594 302.48212891 -173.5390625 300.93359375 C-193.63664434 276.24586778 -207.03401363 247.27331564 -213 216 C-213.13825195 215.33887207 -213.27650391 214.67774414 -213.41894531 213.99658203 C-222.69350618 169.26723825 -211.90826148 121.02663331 -187.37109375 82.84375 C-159.90585517 41.31575741 -117.83106124 11.50657423 -69.015625 1 C-46.84794486 -3.51037953 -22.29558748 -3.96871568 0 0 Z " fill="#010101" transform="translate(531,320)"/>
<path d="M0 0 C13.53673724 0 13.53673724 0 19.74609375 0.33203125 C20.42641663 0.3680394 21.1067395 0.40404755 21.80767822 0.44114685 C24.01790953 0.56022627 26.22771623 0.68539604 28.4375 0.8125 C29.6060704 0.87926941 29.6060704 0.87926941 30.79824829 0.9473877 C172.19774038 9.10721298 172.19774038 9.10721298 214 36 C214.67289063 36.42474609 215.34578125 36.84949219 216.0390625 37.28710938 C231.78121053 47.28816937 247.00776341 58.2609876 261.09375 70.4921875 C263.85022342 72.8707573 266.65962943 75.16030636 269.5 77.4375 C274.87503413 81.80814819 279.92823702 86.48118387 284.98828125 91.20703125 C287.40653176 93.4623045 289.86854061 95.65510265 292.375 97.8125 C295.44422137 100.46435863 298.29514003 103.2715612 301.13427734 106.16625977 C302.89723883 107.89900037 304.7126582 109.50677993 306.59375 111.109375 C311.59284493 115.45881796 316.30140913 120.08027912 321 124.75 C321.87011719 125.59949219 322.74023438 126.44898438 323.63671875 127.32421875 C324.45785156 128.14019531 325.27898437 128.95617187 326.125 129.796875 C326.87007812 130.53260742 327.61515625 131.26833984 328.3828125 132.02636719 C330 134 330 134 330 137 C328.29577881 137.00616333 328.29577881 137.00616333 326.55712891 137.01245117 C263.10072663 137.35772847 210.87604397 155.19158386 165.5234375 200.47265625 C147.9701502 219.07914079 135.00600875 242.20385703 126 266 C125.53078125 267.21300781 125.0615625 268.42601562 124.578125 269.67578125 C120.4552786 281.11540752 118.22346176 293.06925645 116 305 C115.81751709 305.87180908 115.63503418 306.74361816 115.44702148 307.6418457 C114.80785568 312.44344356 114.83730102 317.20008069 114.83203125 322.0390625 C114.82870285 323.11513763 114.82537445 324.19121277 114.82194519 325.29989624 C114.81688837 327.5811114 114.81453648 329.86233393 114.81469727 332.14355469 C114.81253813 335.564585 114.79444552 338.98527787 114.77539062 342.40625 C114.63997795 394.52000834 130.07713346 443.0831106 165.9921875 481.78125 C167.39653181 483.33313242 168.74192411 484.93948628 170.0390625 486.58203125 C172.9737624 490.20071499 176.45051599 493.00109602 180 496 C181.26457031 497.11375 181.26457031 497.11375 182.5546875 498.25 C225.97347856 535.77538175 273.821251 544.43947919 330 546 C330 594.51 330 643.02 330 693 C326.04 690.03 326.04 690.03 322 687 C321.21109375 686.49855469 320.4221875 685.99710938 319.609375 685.48046875 C313.76832237 681.41872837 312.84765628 676.44988838 311.56835938 669.82836914 C308.99639832 657.10947451 302.10548091 645.98794385 294 636 C293.35933594 635.17242188 292.71867187 634.34484375 292.05859375 633.4921875 C277.61338342 616.00443762 255.17982683 606.65813593 233.3984375 602.68359375 C229.83735949 601.96728495 226.60185381 600.93062972 223.21875 599.63671875 C220.94855483 598.88982983 220.94855483 598.88982983 218.28125 598.89453125 C211.65968408 598.57216554 208.29141132 596.81262128 203.88085938 592.05834961 C202.09768777 590.03145474 200.3235831 587.99690472 198.55078125 585.9609375 C182.38270064 567.50454659 157.39277244 556.71901994 133.5625 552.73828125 C130.76297512 552.15811656 128.31644684 551.4616769 125.63671875 550.5234375 C99.99150601 541.70501711 72.2195941 545.44039455 46.99267578 553.37695312 C45.06124712 553.98084996 43.12248657 554.56114015 41.18359375 555.140625 C35.48123483 556.67656128 35.48123483 556.67656128 30.1484375 559.1015625 C26.82674628 560.49063337 23.4762966 560.24705459 19.9375 560.1875 C19.23689453 560.18685547 18.53628906 560.18621094 17.81445312 560.18554688 C11.79619933 560.13661798 6.04351309 559.54941028 0 559 C0 374.53 0 190.06 0 0 Z " fill="#A6A6A6" transform="translate(186,166)"/>
<path d="M0 0 C2.707713 2.18038215 5.33806833 4.42461331 7.953125 6.71484375 C9.12101562 7.68357422 9.12101562 7.68357422 10.3125 8.671875 C16.31885539 13.75656551 21.15550257 19.49506895 25.953125 25.71484375 C26.63375 26.56820312 27.314375 27.4215625 28.015625 28.30078125 C48.17635801 54.52548474 56.5611235 90.62684686 52.453125 123.23046875 C47.08944925 158.83536853 29.23831487 190.63110722 0.37890625 212.453125 C-18.24827007 226.07690029 -39.33243778 234.16105324 -62.046875 237.71484375 C-62.85382813 237.84761719 -63.66078125 237.98039062 -64.4921875 238.1171875 C-96.15224129 242.51107329 -131.42756081 233.07228023 -156.85888672 213.86132812 C-162.15836507 209.73617413 -167.19199742 205.35553556 -172.046875 200.71484375 C-172.645 200.16828125 -173.243125 199.62171875 -173.859375 199.05859375 C-196.54425273 177.63398701 -210.09002778 144.58205409 -211.40625 113.80078125 C-212.42006852 75.08495917 -200.25001492 41.97940931 -173.83422852 13.50854492 C-128.69480227 -33.50904296 -51.85396909 -38.89047682 0 0 Z " fill="#A6A6A6" transform="translate(579.046875,396.28515625)"/>
<path d="M0 0 C0 184.14 0 368.28 0 558 C-6.94126286 559.73531572 -13.81223247 561.44930713 -20.80859375 562.8828125 C-22.45690226 563.22542349 -24.10517542 563.5682046 -25.75341797 563.91113281 C-26.6074823 564.08809692 -27.46154663 564.26506104 -28.3414917 564.4473877 C-32.97086187 565.4096743 -37.59670117 566.38863706 -42.22265625 567.3671875 C-43.65958832 567.67107895 -43.65958832 567.67107895 -45.12554932 567.98110962 C-63.94778268 571.96484862 -82.7598473 575.95895493 -101.47949219 580.40478516 C-103.88239489 580.9722277 -106.2879657 581.52597552 -108.6953125 582.07421875 C-116.62281029 583.88818255 -124.45496679 585.92521294 -132.27807617 588.14697266 C-137.26269088 589.55149813 -142.26262629 590.79212492 -147.3125 591.9375 C-157.32441864 594.24536732 -167.17447205 596.99838162 -177 600 C-178.18094238 600.35916504 -179.36188477 600.71833008 -180.57861328 601.08837891 C-202.53237556 607.82315249 -223.34656676 616.44874065 -244.1505127 626.13879395 C-245.82129377 626.91678619 -247.49402857 627.69057935 -249.16699219 628.46386719 C-266.40806845 636.44144542 -283.3055578 645.13748815 -300.22460938 653.77099609 C-302.14678002 654.75117369 -304.06962439 655.73003129 -305.99316406 656.70751953 C-319.35601464 663.4985138 -332.56681802 670.52432119 -345.70324707 677.74291992 C-350.29534196 680.25630782 -354.92239904 682.70145984 -359.5625 685.125 C-360.42294922 685.57875 -361.28339844 686.0325 -362.16992188 686.5 C-366.05190691 688.53270479 -369.87364114 690.49797162 -374 692 C-370.70108286 680.81617105 -367.29673207 669.67044185 -363.75 658.5625 C-363.40904297 657.49136963 -363.06808594 656.42023926 -362.71679688 655.31665039 C-362.39259766 654.30594482 -362.06839844 653.29523926 -361.734375 652.25390625 C-361.30463379 650.91307983 -361.30463379 650.91307983 -360.86621094 649.54516602 C-355.91049489 634.98390902 -337.49587425 626.89188806 -325 619 C-324.15373047 618.4647168 -323.30746094 617.92943359 -322.43554688 617.37792969 C-295.54462904 600.42406246 -268.02284957 584.05239566 -239 571 C-238.61070312 571.44730469 -238.22140625 571.89460937 -237.8203125 572.35546875 C-231.40675106 579.28625289 -224.96013583 583.20769798 -215.375 583.6875 C-202.71525592 583.15083694 -191.85582939 578.14083772 -182.50390625 569.73046875 C-177.75645918 564.55345548 -174.61822298 558.82087747 -173 552 C-157.58980085 549.17907075 -142.17743734 546.81729147 -126.625 544.9375 C-125.58503876 544.8102655 -124.54507751 544.68303101 -123.47360229 544.55194092 C-108.36142161 542.71447582 -93.24706319 541.21360884 -78.0625 540.125 C-77.2093219 540.06351776 -76.3561438 540.00203552 -75.47711182 539.93869019 C-73.0593386 539.76784143 -70.64123655 539.60429664 -68.22265625 539.4453125 C-67.53304306 539.39876022 -66.84342987 539.35220795 -66.13291931 539.304245 C-60.72526134 538.97071444 -55.44922047 539 -50 539 C-50 361.79 -50 184.58 -50 2 C-44.42036895 0.88407379 -39.10838354 0.64778808 -33.4375 0.4375 C-32.43525391 0.39431641 -31.43300781 0.35113281 -30.40039062 0.30664062 C-20.24872323 -0.08936869 -10.1846034 0 0 0 Z " fill="#545454" transform="translate(963,208)"/>
<path d="M0 0 C22.50355908 -0.90705805 43.34633433 6.87549128 60.2265625 21.66796875 C66.2829514 27.27959159 71.27893811 32.8677495 75.6015625 39.91796875 C78.69919052 44.94812596 81.66879021 48.54533261 87.0390625 51.23046875 C89.25000092 51.25643179 91.46178987 51.2190261 93.671875 51.15234375 C95.04203153 51.12068363 96.41223416 51.09097203 97.7824707 51.06298828 C98.49891754 51.04834534 99.21536438 51.03370239 99.95352173 51.01861572 C112.38745247 50.80404523 123.56530392 50.82346002 135.0390625 56.23046875 C136.0290625 56.66488281 137.0190625 57.09929688 138.0390625 57.546875 C152.964773 64.82315887 162.19660315 77.30724524 168.10546875 92.4765625 C169.33486266 96.10301734 169.94543751 99.42929426 170.0390625 103.23046875 C170.08933594 104.43832031 170.13960938 105.64617187 170.19140625 106.890625 C170.68213126 123.29850658 166.13940393 136.51286264 155.2890625 149.10546875 C146.7842184 157.94383615 132.729513 167.5210037 120.09824455 168.35926992 C119.07429578 168.36195277 119.07429578 168.36195277 118.02966118 168.36468983 C116.84086918 168.37137659 116.84086918 168.37137659 115.62806118 168.37819844 C114.33090213 168.3779219 114.33090213 168.3779219 113.00753784 168.37763977 C112.08420941 168.38131646 111.16088099 168.38499315 110.20957291 168.38878125 C107.10829691 168.3998151 104.00705441 168.40366144 100.90576172 168.4074707 C98.68497104 168.4137356 96.46418142 168.42038242 94.24339294 168.42738342 C86.94351939 168.44842381 79.64364562 168.45878607 72.34375 168.46875 C69.83037429 168.47279762 67.31699869 168.47691454 64.8036232 168.48110008 C54.34818035 168.49796893 43.89273863 168.51260334 33.43728447 168.51984882 C30.72544224 168.5217586 28.01360001 168.52367895 25.30175781 168.52563477 C24.62777337 168.52611851 23.95378893 168.52660225 23.25938071 168.52710065 C12.34760818 168.53539636 1.43594543 168.56072635 -9.47577919 168.59321544 C-20.6879366 168.62632587 -31.90004037 168.64396871 -43.11225307 168.64749306 C-49.40371651 168.64984295 -55.6950064 168.6587957 -61.98642349 168.68395424 C-67.90766907 168.70724982 -73.828627 168.711462 -79.74990654 168.70119286 C-81.91944651 168.70069775 -84.08900071 168.70701078 -86.25849724 168.7207489 C-89.22851085 168.73849914 -92.19749564 168.7313459 -95.16751099 168.71821594 C-96.01889936 168.72918519 -96.87028773 168.74015443 -97.74747574 168.75145608 C-107.40900551 168.64887359 -115.91944769 164.8025259 -122.9609375 158.23046875 C-130.67547254 149.79870936 -132.58961595 142.21951635 -132.296875 130.84765625 C-131.40541504 121.24891292 -126.05529027 114.52229293 -118.9609375 108.23046875 C-111.63139798 103.03097425 -103.95577998 101.33214633 -95.19165039 100.34204102 C-89.19158531 99.59935124 -86.15469166 97.81305023 -82.17578125 93.12890625 C-80.34513408 88.76125288 -80.56086475 84.54422703 -80.5234375 79.85546875 C-79.89311912 57.89877827 -71.69533572 39.71425 -56.7109375 23.54296875 C-40.95345844 8.68901487 -21.3467185 1.24206745 0 0 Z " fill="#FEFEFE" transform="translate(273.9609375,769.76953125)"/>
<path d="M0 0 C0 184.47 0 368.94 0 559 C-17.16 560.32 -34.32 561.64 -52 563 C-103.66101455 568.86489779 -151.71207244 576.56892628 -200.23495483 595.44223022 C-217.12236408 602.00045342 -234.13724813 608.19369327 -251.1875 614.3125 C-251.87350533 614.55871723 -252.55951065 614.80493446 -253.26630402 615.05861282 C-274.62294552 622.72036731 -296.02891539 630.23307116 -317.48852539 637.60205078 C-328.06729336 641.23710716 -338.62581801 644.91910284 -349.15234375 648.703125 C-350.21162582 649.08328262 -351.2709079 649.46344025 -352.36228943 649.8551178 C-357.40306337 651.66534938 -362.44055058 653.48398441 -367.47338867 655.31616211 C-369.2451855 655.95452652 -371.01707147 656.59264362 -372.7890625 657.23046875 C-373.59774277 657.52838318 -374.40642303 657.82629761 -375.23960876 658.13323975 C-377.14003062 658.81331098 -379.0681611 659.41510807 -381 660 C-381.66 659.67 -382.32 659.34 -383 659 C-382.6282666 658.55309814 -382.2565332 658.10619629 -381.87353516 657.64575195 C-380.12159308 655.53667284 -378.37311627 653.42475118 -376.625 651.3125 C-375.98449707 650.54099609 -375.34399414 649.76949219 -374.68408203 648.97460938 C-371.34753115 644.93364768 -368.11965134 640.85916481 -365.05102539 636.61181641 C-355.17492632 623.07600448 -340.44387361 615.81398342 -326 608 C-325.18934082 607.55962402 -324.37868164 607.11924805 -323.54345703 606.66552734 C-296.71206993 592.26859991 -267.78336848 581.17130504 -239.38037109 570.30029297 C-236.4124558 569.15865518 -233.4512706 568.00118385 -230.49235535 566.8364563 C-186.2461678 549.4400771 -139.58418928 542.42074279 -92.45214844 537.76782227 C-89.16525785 537.44149684 -85.87955056 537.10467802 -82.59375 536.76757812 C-80.41933543 536.55143248 -78.24485793 536.33591883 -76.0703125 536.12109375 C-74.66110031 535.9741935 -74.66110031 535.9741935 -73.22341919 535.82432556 C-61.47800506 534.69216332 -49.84756541 534.47390262 -38 534 C-38 358.44 -38 182.88 -38 2 C-34.98887479 0.9962916 -32.74480733 0.80307011 -29.58984375 0.68359375 C-28.51669922 0.64169922 -27.44355469 0.59980469 -26.33789062 0.55664062 C-25.21576172 0.51732422 -24.09363281 0.47800781 -22.9375 0.4375 C-21.84244141 0.39431641 -20.74738281 0.35113281 -19.61914062 0.30664062 C-13.06508249 0.06071706 -6.56862358 0 0 0 Z " fill="#010101" transform="translate(1026,254)"/>
<path d="M0 0 C0.75539063 0.66386719 1.51078125 1.32773437 2.2890625 2.01171875 C3.10632813 2.68589844 3.92359375 3.36007812 4.765625 4.0546875 C9.2099257 7.83165513 12.42184534 11.16659095 15.37768555 16.22802734 C17.85377093 20.24719637 19.95970631 23.43077508 24.734375 24.62158203 C30.66265866 25.26346486 36.5956871 25.04814839 42.54833984 24.95996094 C48.77007755 25.07745679 54.44778583 26.96168689 60.2890625 29.01171875 C61.52785156 29.43453125 62.76664062 29.85734375 64.04296875 30.29296875 C77.67401817 35.20049583 88.89329184 42.93495189 99.2890625 53.01171875 C100.20558594 53.81802734 100.20558594 53.81802734 101.140625 54.640625 C107.13753215 60.10356097 111.18350855 67.09453171 115.2890625 74.01171875 C115.78664063 74.84703125 116.28421875 75.68234375 116.796875 76.54296875 C122.36241318 86.7639571 126.0416363 99.36501393 126.2890625 111.01171875 C126.32773437 112.16027344 126.36640625 113.30882812 126.40625 114.4921875 C126.84060406 138.16448381 119.23912299 160.22669555 103.2890625 178.01171875 C102.48855469 178.90632812 101.68804687 179.8009375 100.86328125 180.72265625 C88.76480518 193.52015538 74.64564893 200.88846339 58.2890625 207.01171875 C57.27972656 207.39328125 56.27039063 207.77484375 55.23046875 208.16796875 C48.51674694 210.09381724 41.7093077 210.1603878 34.77893066 210.15888977 C33.85233438 210.16256646 32.9257381 210.16624315 31.97106314 210.17003125 C28.88239572 210.1809981 25.79376203 210.18489998 22.70507812 210.1887207 C20.48358048 210.19499067 18.26208386 210.20163794 16.04058838 210.20863342 C8.7588371 210.22961373 1.47708575 210.24003054 -5.8046875 210.25 C-8.31793732 210.25404988 -10.83118704 210.25816687 -13.34443665 210.26235008 C-23.80346086 210.27921006 -34.26248397 210.2938442 -44.72151947 210.30109882 C-47.43023174 210.30300834 -50.13894401 210.30492874 -52.84765625 210.30688477 C-53.85736503 210.30761038 -53.85736503 210.30761038 -54.88747197 210.30835065 C-65.77877066 210.31664152 -76.6699592 210.34196681 -87.56120986 210.37446544 C-98.771259 210.4076397 -109.98126846 210.42522484 -121.19137049 210.42874306 C-127.47402346 210.43108647 -133.75650207 210.43995454 -140.03910828 210.46520424 C-145.95550083 210.4885991 -151.87160559 210.49267241 -157.78803253 210.48244286 C-159.94860546 210.48195015 -162.10919312 210.48819142 -164.26972198 210.5019989 C-187.53039517 210.64222825 -208.0339846 206.35604141 -225.25634766 189.54150391 C-232.46464032 181.96057712 -237.36524497 172.87823163 -240.7109375 163.01171875 C-241.02933594 162.10421875 -241.34773438 161.19671875 -241.67578125 160.26171875 C-246.56041221 144.05464829 -244.30062815 127.75977826 -237.13671875 112.703125 C-228.54535283 96.98232722 -215.17784743 85.72335029 -198.7109375 79.01171875 C-195.90353245 78.32218067 -193.61056755 78.06971135 -190.7109375 78.01171875 C-190.7728125 76.77421875 -190.8346875 75.53671875 -190.8984375 74.26171875 C-190.82035233 49.23542328 -174.6736631 24.80707345 -157.7734375 7.69921875 C-152.14294387 2.12453683 -146.53537046 -2.90252775 -139.7109375 -6.98828125 C-138.82792969 -7.55417969 -137.94492188 -8.12007812 -137.03515625 -8.703125 C-96.05287206 -34.04670264 -37.17238009 -31.6400359 0 0 Z M-138.3359375 35.63671875 C-149.02534916 48.03107242 -157.75668875 64.36546412 -157.8515625 81.06640625 C-157.87089844 82.01128906 -157.89023438 82.95617187 -157.91015625 83.9296875 C-157.94387273 85.8930243 -157.96222907 87.85668796 -157.96484375 89.8203125 C-158.13808975 96.52219714 -159.18359031 100.00145453 -163.7109375 105.01171875 C-168.2140317 107.79022368 -172.16759349 108.22509124 -177.3984375 108.82421875 C-187.06477093 110.07878543 -195.60446075 113.78694354 -202.24609375 121.078125 C-209.22377376 130.28866261 -210.50097927 138.68778675 -209.7109375 150.01171875 C-207.89488122 158.58304169 -202.55999741 165.64773472 -195.40234375 170.61328125 C-188.13333073 174.80552822 -181.77606222 176.30931392 -173.45909119 176.28587341 C-172.53617061 176.29111009 -171.61325003 176.29634677 -170.66236216 176.30174214 C-167.57426186 176.31672627 -164.4863275 176.31744695 -161.39819336 176.31811523 C-159.18197348 176.32573795 -156.96575624 176.33416564 -154.74954224 176.34333801 C-148.73061647 176.36528293 -142.71174151 176.37408231 -136.69278026 176.37916446 C-132.92936715 176.38280903 -129.16596732 176.38904973 -125.40255928 176.39616585 C-114.96848728 176.41562113 -104.53442449 176.43213393 -94.10033321 176.43504238 C-93.43316649 176.43522995 -92.76599977 176.43541752 -92.07861588 176.43561077 C-90.72628057 176.43597701 -89.37394526 176.43634071 -88.02160995 176.43670189 C-87.35036978 176.4368847 -86.67912961 176.43706751 -85.98754883 176.43725586 C-84.97944907 176.43752668 -84.97944907 176.43752668 -83.95098365 176.43780298 C-73.07366109 176.44134072 -62.19653698 176.46833939 -51.31928318 176.50575375 C-40.13303772 176.54392065 -28.94686463 176.56276029 -17.76054674 176.56350189 C-11.48742973 176.56429354 -5.21456866 176.57298035 1.05848885 176.60149956 C6.96423597 176.6277478 12.86951623 176.62984733 18.77529526 176.61384392 C20.93551467 176.61203463 23.09576133 176.61867273 25.25592232 176.63466263 C37.02198624 176.71640347 46.62160939 176.46452218 57.2890625 171.01171875 C58.27459138 170.54560905 59.26012026 170.07949934 60.27551365 169.5992651 C71.9049096 163.97950223 80.11689407 155.20931393 86.2890625 144.01171875 C86.90394531 142.944375 86.90394531 142.944375 87.53125 141.85546875 C93.75538184 130.4067007 93.93947322 115.48180483 91.23046875 102.921875 C86.21791122 87.42662456 77.25554908 75.5379045 63.2890625 67.01171875 C62.33966797 66.42970703 62.33966797 66.42970703 61.37109375 65.8359375 C49.62445783 59.3489893 37.8104527 58.50344887 24.7890625 59.01171875 C21.98704152 59.11889988 19.18612396 59.19821058 16.3828125 59.26171875 C15.16271484 59.308125 13.94261719 59.35453125 12.68554688 59.40234375 C7.57342522 58.81440566 4.54568363 56.41440469 1.171875 52.6484375 C-0.89873331 49.74872669 -2.87288268 46.79777596 -4.8359375 43.82421875 C-17.00088527 25.95116175 -34.06563077 15.60315599 -54.7109375 10.01171875 C-55.4328125 9.78484375 -56.1546875 9.55796875 -56.8984375 9.32421875 C-85.97118733 1.14750786 -118.36182797 14.79867715 -138.3359375 35.63671875 Z " fill="#020202" transform="translate(351.7109375,761.98828125)"/>
<path d="M0 0 C10.05866973 0 20.02781735 0.01008504 30.0625 0.4375 C31.11115234 0.47681641 32.15980469 0.51613281 33.24023438 0.55664062 C34.26568359 0.59853516 35.29113281 0.64042969 36.34765625 0.68359375 C37.69355835 0.73858032 37.69355835 0.73858032 39.06665039 0.79467773 C42.72423065 1.05069313 46.36178407 1.54522301 50 2 C50 179.21 50 356.42 50 539 C54.62 539 59.24 539 64 539 C62.7625 540.423125 62.7625 540.423125 61.5 541.875 C54.66052088 549.88926024 48.48343467 557.98660426 43 567 C38.46843897 566.56427298 34.21517524 565.84975573 29.8125 564.6875 C22.95098058 562.89485078 16.00783368 561.62697326 9.03442383 560.3581543 C8.15423584 560.19613525 7.27404785 560.03411621 6.3671875 559.8671875 C5.57425293 559.72394043 4.78131836 559.58069336 3.96435547 559.43310547 C2 559 2 559 0 558 C0 373.86 0 189.72 0 0 Z " fill="#545454" transform="translate(117,208)"/>
<path d="M0 0 C2.707713 2.18038215 5.33806833 4.42461331 7.953125 6.71484375 C9.12101562 7.68357422 9.12101562 7.68357422 10.3125 8.671875 C16.31885539 13.75656551 21.15550257 19.49506895 25.953125 25.71484375 C26.63375 26.56820312 27.314375 27.4215625 28.015625 28.30078125 C48.17635801 54.52548474 56.5611235 90.62684686 52.453125 123.23046875 C47.08944925 158.83536853 29.23831487 190.63110722 0.37890625 212.453125 C-17.57039749 225.58110943 -40.50432811 236.71484375 -63.046875 236.71484375 C-63.046875 151.57484375 -63.046875 66.43484375 -63.046875 -21.28515625 C-95.816542 -21.28515625 -128.0792586 -20.13461062 -155.046875 0.71484375 C-155.706875 0.38484375 -156.366875 0.05484375 -157.046875 -0.28515625 C-111.22434037 -34.78682938 -45.84321538 -34.38241154 0 0 Z " fill="#FEFEFE" transform="translate(579.046875,396.28515625)"/>
<path d="M0 0 C8.62043205 0 17.15239768 0.03523788 25.75 0.4375 C27.2040625 0.49647461 27.2040625 0.49647461 28.6875 0.55664062 C29.61046875 0.59853516 30.5334375 0.64042969 31.484375 0.68359375 C32.30647461 0.72025146 33.12857422 0.75690918 33.97558594 0.79467773 C36 1 36 1 38 2 C38 177.56 38 353.12 38 534 C41.96 534 45.92 534 50 534 C53.46826903 534.24407059 56.903706 534.52209721 60.359375 534.875 C61.27462952 534.96378418 62.18988403 535.05256836 63.13287354 535.14404297 C66.00580948 535.42396344 68.87788196 535.71182115 71.75 536 C73.71869804 536.19323848 75.68744776 536.38595108 77.65625 536.578125 C82.43811754 537.04602253 87.21922923 537.52103123 92 538 C90.83630273 540.9415681 89.64287329 543.85791676 88.34375 546.7421875 C87.89322266 547.75345703 87.89322266 547.75345703 87.43359375 548.78515625 C86.814106 550.1718757 86.1917348 551.55731084 85.56640625 552.94140625 C83.65942289 557.23825717 82.18795352 561.450138 81 566 C72.54445728 565.3751466 64.1031835 564.65984368 55.6640625 563.84375 C53.35937978 563.62364787 51.05469213 563.40359737 48.75 563.18359375 C45.18709768 562.84209995 41.62426272 562.49992898 38.06152344 562.15673828 C34.57504624 561.82137055 31.08832122 561.48867621 27.6015625 561.15625 C26.56045319 561.05517944 25.51934387 560.95410889 24.44668579 560.84997559 C16.29786449 560.07511809 8.17769263 559.54517951 0 559 C0 374.53 0 190.06 0 0 Z " fill="#010101" transform="translate(54,254)"/>
<path d="M0 0 C2.54852189 0.93252345 3.8200986 2.11852271 5.73284531 4.03996372 C6.43671875 4.73971317 7.14059219 5.43946262 7.86579514 6.1604166 C8.62752533 6.93293262 9.38925552 7.70544865 10.17406845 8.50137424 C11.38926414 9.71591282 11.38926414 9.71591282 12.62900925 10.95498753 C15.30907711 13.63714794 17.97835838 16.32978359 20.64770126 19.02261448 C22.5022107 20.88271817 24.35738292 22.74216129 26.21319199 24.60096836 C30.60005363 28.99715389 34.97921197 33.40093068 39.35565782 37.80748266 C44.33884611 42.82420425 49.33055672 47.83240889 54.32300329 52.83991444 C64.59178992 63.14005786 74.8498272 73.45086237 85.10082626 83.76870823 C82.46526119 85.77555346 79.90237294 87.50549658 76.96801376 89.04605198 C76.17105087 89.47079807 75.37408798 89.89554417 74.5529747 90.33316135 C73.70251572 90.78626682 72.85205673 91.23937229 71.97582626 91.70620823 C62.68942845 96.73591842 53.91911337 102.30337891 45.2326622 108.29995823 C43.15797474 109.7293352 41.07280237 111.14184796 38.98363876 112.54995823 C29.46073281 118.99277225 20.23690815 125.79058657 11.10082626 132.76870823 C10.52735458 133.20570042 9.9538829 133.6426926 9.36303329 134.09292698 C5.5948978 136.96683495 1.84370409 139.86200524 -1.89917374 142.76870823 C-2.7137001 143.39978489 -2.7137001 143.39978489 -3.54468155 144.04361057 C-12.83282042 151.24936495 -21.92079294 158.68395804 -30.97485733 166.1808176 C-33.60406189 168.35036169 -36.25189294 170.49626366 -38.89917374 172.64370823 C-43.12173319 176.08502962 -47.19654084 179.66292411 -51.21948624 183.33511448 C-52.89917374 184.76870823 -52.89917374 184.76870823 -53.89917374 184.76870823 C-53.89917374 132.29870823 -53.89917374 79.82870823 -53.89917374 25.76870823 C-46.63917374 22.79870823 -39.37917374 19.82870823 -31.89917374 16.76870823 C-28.051359 14.92783881 -24.31908574 13.11002969 -20.58667374 11.08120823 C-19.75974014 10.6474387 -18.93280655 10.21366917 -18.08081436 9.7667551 C-13.0817817 7.10401308 -8.46848669 4.17347807 -3.91797256 0.7967844 C-1.89917374 -0.23129177 -1.89917374 -0.23129177 0 0 Z " fill="#A6A6A6" transform="translate(617.8991737365723,674.2312917709351)"/>
<path d="M0 0 C15.73971798 8.99412456 15.73971798 8.99412456 20.9375 13.625 C22.01430505 14.57554108 23.09112777 15.52606213 24.16796875 16.4765625 C25.10253906 17.30929687 26.03710938 18.14203125 27 19 C28.24767807 20.00289552 29.49719517 21.00351616 30.75 22 C34.62220202 25.30389377 37.65464741 29.32766502 40.7890625 33.31640625 C42.96881819 36.0567081 42.96881819 36.0567081 45.56640625 38.52734375 C64.10409405 57.36258673 68.39808951 91.02867846 68.30224609 116.19213867 C67.61308073 151.37499664 51.50459053 182.9996264 27.2890625 207.7734375 C19.82699037 214.87697163 9.94621348 223.68459551 0 227 C0 152.09 0 77.18 0 0 Z " fill="#A5A5A5" transform="translate(564,391)"/>
<path d="M0 0 C0.66 0.33 1.32 0.66 2 1 C0.80117188 2.11181641 0.80117188 2.11181641 -0.421875 3.24609375 C-18.68477913 20.58379702 -33.1935542 43.31632134 -39 68 C-39.18183838 68.76731445 -39.36367676 69.53462891 -39.55102539 70.32519531 C-41.318133 78.68506404 -41.35714034 86.9995702 -41.3125 95.5 C-41.31001251 96.25389008 -41.30752502 97.00778015 -41.30496216 97.78451538 C-41.09923428 138.09488957 -26.07609706 171.82898004 2.3125 200.375 C3.54027001 201.58475243 4.76940519 202.79312115 6 204 C7.33450139 205.33216426 8.66813752 206.66519743 10 208 C5.37915212 206.55065657 2.3179104 203.90107561 -1.125 200.625 C-1.6919458 200.09044189 -2.2588916 199.55588379 -2.84301758 199.00512695 C-22.44966394 180.31373145 -36.33550351 158.47119327 -43 132 C-43.31839844 130.7728125 -43.63679688 129.545625 -43.96484375 128.28125 C-51.52437148 93.44471666 -44.07792888 57.72523014 -25 28 C-18.31228991 18.13782339 -9.95599307 6.83439904 0 0 Z " fill="#EFEFEF" transform="translate(414,402)"/>
<path d="M0 0 C0.66 0.33 1.32 0.66 2 1 C0.80117188 2.11181641 0.80117188 2.11181641 -0.421875 3.24609375 C-18.91078382 20.79835229 -32.6593659 43.23299277 -39 68 C-39.99 68 -40.98 68 -42 68 C-39.08795669 45.43166434 -24.08231701 24.94611854 -9.25 8.5625 C-8.78996582 8.05372314 -8.32993164 7.54494629 -7.85595703 7.02075195 C-5.41352242 4.37055469 -2.96987345 2.04699222 0 0 Z " fill="#E8E8E8" transform="translate(414,402)"/>
<path d="M0 0 C0 0.66 0 1.32 0 2 C-1.58361328 2.34998047 -1.58361328 2.34998047 -3.19921875 2.70703125 C-17.39377408 6.11048006 -31.39452526 11.98517941 -43 21 C-43.66 20.67 -44.32 20.34 -45 20 C-35.44146088 12.80298231 -12.48015001 -4.16005 0 0 Z " fill="#E2E2E2" transform="translate(467,376)"/>
<path d="M0 0 C0.66 0.33 1.32 0.66 2 1 C1.154375 1.81082031 0.30875 2.62164062 -0.5625 3.45703125 C-7.51192695 10.20968929 -13.62512171 16.89708681 -19 25 C-19.66 24.67 -20.32 24.34 -21 24 C-16.64964029 14.27966503 -7.97752747 6.74509107 0 0 Z " fill="#EAEAEA" transform="translate(414,402)"/>
<path d="M0 0 C0 0.66 0 1.32 0 2 C-2.12136362 2.55573751 -4.24725521 3.09421768 -6.375 3.625 C-7.55835938 3.92664063 -8.74171875 4.22828125 -9.9609375 4.5390625 C-10.96382813 4.69117188 -11.96671875 4.84328125 -13 5 C-13.66 4.34 -14.32 3.68 -15 3 C-13.06643218 2.30151736 -11.12797702 1.61655186 -9.1875 0.9375 C-8.10855469 0.55464844 -7.02960938 0.17179687 -5.91796875 -0.22265625 C-3 -1 -3 -1 0 0 Z " fill="#D8D8D8" transform="translate(467,376)"/>
<path d="M0 0 C0.66 0 1.32 0 2 0 C0.43358249 4.30764815 -1.68336156 8.06171464 -4 12 C-4.66 11.67 -5.32 11.34 -6 11 C-4.54997977 6.89160936 -2.6020866 3.49655387 0 0 Z " fill="#F1F1F1" transform="translate(392,426)"/>
<path d="M0 0 C0.66 0.33 1.32 0.66 2 1 C-1.3 4.3 -4.6 7.6 -8 11 C-8.99 10.67 -9.98 10.34 -11 10 C-3.70159453 2.51708428 -3.70159453 2.51708428 0 0 Z " fill="#D9D9D9" transform="translate(414,402)"/>
<path d="M0 0 C-6.435 0.495 -6.435 0.495 -13 1 C-8.24859325 -3.75140675 -5.61249926 -3.74166617 0 0 Z " fill="#EEEEEE" transform="translate(479,376)"/>
</svg>
